<?xml version="1.0" encoding="UTF-8" standalone="no"?><!-- Generator: Gravit.io --><svg xmlns="http://www.w3.org/2000/svg" xmlns:xlink="http://www.w3.org/1999/xlink" style="isolation:isolate" viewBox="0 0 116.7 700" width="116.7pt" height="700pt"><defs><clipPath id="_clipPath_AndIrlLa1HUuJwOXJQapxqpM8JxbeMTW"><rect width="116.7" height="700"/></clipPath></defs><g clip-path="url(#_clipPath_AndIrlLa1HUuJwOXJQapxqpM8JxbeMTW)"><rect width="116.7" height="700" style="fill:rgb(98,78,78)" fill-opacity="0"/><g><path d=" M -642 466.667 L -758.667 466.667 L -758.667 352.917 L -817 352.917 L -817 236.25 L -817 236.25 L -700.333 236.25 L -700.333 350 L -700.333 350 L -700.333 350 L -700.333 350 L -700.333 350 L -700.333 350 L -700.333 350 L -700.333 350 L -700.333 350 L -700.333 350 L -700.333 350 L -700.333 350 L -700.333 350 L -700.333 350 L -700.333 350 L -700.333 350 L -700.333 350 L -700.333 350 L -700.333 350 L -642 350 L -642 0 L -525.333 0 L -525.333 700 L -642 700 L -642 466.667 Z  M 933 145.833 L 903.833 145.833 L 903.833 233.333 L 787.167 233.333 L 787.167 145.833 L 758 145.833 L 758 145.833 L 758 700 L 641.333 700 L 641.333 0 L 758 0 L 758 29.167 L 816.333 29.167 L 816.333 116.667 L 816.333 116.667 L 874.667 116.667 L 874.667 116.667 L 874.667 29.167 L 933 29.167 L 933 0 L 1049.667 0 L 1049.667 700 L 933 700 L 933 145.833 L 933 145.833 L 933 145.833 L 933 145.833 L 933 145.833 Z  M -175.333 408.333 L -467 408.333 L -467 323.31 L -467 323.31 L -467 90.417 L -467 90.417 L -467 0 L -467 0 L -467 0 L -467 0 L -58.667 0 L -58.667 116.667 L -350.333 116.667 L -350.333 116.667 L -350.333 291.667 L -58.667 291.667 L -58.667 408.333 L -58.667 408.333 L -58.667 583.333 L -58.667 583.333 L -58.667 700 L -467 700 L -467 583.333 L -467 583.333 L -467 583.333 L -467 583.333 L -175.333 583.333 L -175.333 408.333 L -175.333 408.333 L -175.333 408.333 L -175.333 408.333 L -175.333 408.333 L -175.333 408.333 L -175.333 408.333 L -175.333 408.333 L -175.333 408.333 L -175.333 408.333 L -175.333 408.333 L -175.333 408.333 Z  M -2042 0 L -1633.667 0 L -1633.667 408.333 L -2042 408.333 L -2042 0 L -2042 0 L -2042 0 L -2042 0 L -2042 0 L -2042 0 L -2042 0 L -2042 0 L -2042 0 L -2042 0 L -2042 0 L -2042 0 L -2042 0 L -2042 0 L -2042 0 L -2042 0 L -2042 0 L -2042 0 L -2042 0 L -2042 0 L -2042 0 L -2042 0 L -2042 0 L -2042 0 Z  M -2042 466.667 L -1925.333 466.667 L -1925.333 700 L -2042 700 L -2042 466.667 L -2042 466.667 L -2042 466.667 L -2042 466.667 L -2042 466.667 L -2042 466.667 L -2042 466.667 L -2042 466.667 L -2042 466.667 L -2042 466.667 L -2042 466.667 L -2042 466.667 L -2042 466.667 L -2042 466.667 L -2042 466.667 L -2042 466.667 L -2042 466.667 L -2042 466.667 L -2042 466.667 L -2042 466.667 L -2042 466.667 L -2042 466.667 L -2042 466.667 L -2042 466.667 Z  M -1575.333 466.667 L -1458.667 466.667 L -1458.667 700 L -1575.333 700 L -1575.333 466.667 L -1575.333 466.667 L -1575.333 466.667 L -1575.333 466.667 L -1575.333 466.667 L -1575.333 466.667 L -1575.333 466.667 L -1575.333 466.667 L -1575.333 466.667 L -1575.333 466.667 L -1575.333 466.667 L -1575.333 466.667 L -1575.333 466.667 L -1575.333 466.667 L -1575.333 466.667 L -1575.333 466.667 L -1575.333 466.667 L -1575.333 466.667 L -1575.333 466.667 L -1575.333 466.667 L -1575.333 466.667 L -1575.333 466.667 L -1575.333 466.667 Z  M -1283.667 583.333 L -1167 583.333 L -1167 700 L -1283.667 700 L -1283.667 583.333 L -1283.667 583.333 L -1283.667 583.333 L -1283.667 583.333 L -1283.667 583.333 L -1283.667 583.333 L -1283.667 583.333 L -1283.667 583.333 L -1283.667 583.333 L -1283.667 583.333 L -1283.667 583.333 L -1283.667 583.333 L -1283.667 583.333 L -1283.667 583.333 L -1283.667 583.333 L -1283.667 583.333 L -1283.667 583.333 L -1283.667 583.333 L -1283.667 583.333 L -1283.667 583.333 L -1283.667 583.333 L -1283.667 583.333 Z  M -1400.333 466.667 L -1283.667 466.667 L -1283.667 583.333 L -1400.333 583.333 L -1400.333 466.667 L -1400.333 466.667 L -1400.333 466.667 L -1400.333 466.667 L -1400.333 466.667 L -1400.333 466.667 L -1400.333 466.667 L -1400.333 466.667 L -1400.333 466.667 L -1400.333 466.667 L -1400.333 466.667 L -1400.333 466.667 L -1400.333 466.667 L -1400.333 466.667 L -1400.333 466.667 L -1400.333 466.667 L -1400.333 466.667 L -1400.333 466.667 L -1400.333 466.667 L -1400.333 466.667 L -1400.333 466.667 Z  M -1575.333 0 L -1167 0 L -1167 408.333 L -1575.333 408.333 L -1575.333 0 L -1575.333 0 L -1575.333 0 L -1575.333 0 L -1575.333 0 L -1575.333 0 L -1575.333 0 L -1575.333 0 L -1575.333 0 L -1575.333 0 L -1575.333 0 L -1575.333 0 L -1575.333 0 L -1575.333 0 L -1575.333 0 L -1575.333 0 L -1575.333 0 L -1575.333 0 Z  M 233 583.333 L 233 583.333 L 233 583.333 L 233 583.333 L 233 583.333 L 233 583.333 L 233 583.333 L 233 583.333 L 233 583.333 L 233 583.333 L 233 583.333 L 233 583.333 L 233 583.333 L 524.667 583.333 L 524.667 700 L 233 700 L 233 583.333 L 233 583.333 L 233 583.333 L 233 583.333 L 233 583.333 Z  M -1108.667 0 L -992 0 L -992 700 L -1108.667 700 L -1108.667 0 L -1108.667 0 L -1108.667 0 L -1108.667 0 L -1108.667 0 L -1108.667 0 L -1108.667 0 L -1108.667 0 L -1108.667 0 L -1108.667 0 L -1108.667 0 Z  M -0.333 0 L 116.333 0 L 116.333 700 L -0.333 700 L -0.333 0 L -0.333 0 L -0.333 0 L -0.333 0 L -0.333 0 L -0.333 0 L -0.333 0 L -0.333 0 L -0.333 0 L -0.333 0 Z  M 174.667 0 L 291.333 0 L 291.333 583.333 L 174.667 583.333 L 174.667 0 L 174.667 0 L 174.667 0 L 174.667 0 Z  M 466.333 0 L 583 0 L 583 583.333 L 466.333 583.333 L 466.333 0 L 466.333 0 L 466.333 0 Z  M -933.667 0 L -817 0 L -817 700 L -933.667 700 L -933.667 0 L -933.667 0 Z " fill-rule="evenodd" fill="rgb(255,255,255)"/></g></g></svg>