<?xml version="1.0" encoding="UTF-8" standalone="no"?><!-- Generator: Gravit.io --><svg xmlns="http://www.w3.org/2000/svg" xmlns:xlink="http://www.w3.org/1999/xlink" style="isolation:isolate" viewBox="0 0 408.3 700" width="408.3pt" height="700pt"><defs><clipPath id="_clipPath_b21vcLmzanFe0IwqeOVwXJdIrjJqSMv9"><rect width="408.3" height="700"/></clipPath></defs><g clip-path="url(#_clipPath_b21vcLmzanFe0IwqeOVwXJdIrjJqSMv9)"><rect width="408.3" height="700" style="fill:rgb(98,78,78)" fill-opacity="0"/><g><path d=" M -1284 466.667 L -1400.667 466.667 L -1400.667 352.917 L -1459 352.917 L -1459 236.25 L -1459 236.25 L -1342.333 236.25 L -1342.333 350 L -1342.333 350 L -1342.333 350 L -1342.333 350 L -1342.333 350 L -1342.333 350 L -1342.333 350 L -1342.333 350 L -1342.333 350 L -1342.333 350 L -1342.333 350 L -1342.333 350 L -1342.333 350 L -1342.333 350 L -1342.333 350 L -1342.333 350 L -1342.333 350 L -1342.333 350 L -1342.333 350 L -1284 350 L -1284 0 L -1167.333 0 L -1167.333 700 L -1284 700 L -1284 466.667 Z  M 291 145.833 L 261.833 145.833 L 261.833 233.333 L 145.167 233.333 L 145.167 145.833 L 116 145.833 L 116 145.833 L 116 700 L -0.667 700 L -0.667 0 L 116 0 L 116 29.167 L 174.333 29.167 L 174.333 116.667 L 174.333 116.667 L 232.667 116.667 L 232.667 116.667 L 232.667 29.167 L 291 29.167 L 291 0 L 407.667 0 L 407.667 700 L 291 700 L 291 145.833 L 291 145.833 L 291 145.833 L 291 145.833 L 291 145.833 Z  M -817.333 408.333 L -1109 408.333 L -1109 323.31 L -1109 323.31 L -1109 90.417 L -1109 90.417 L -1109 0 L -1109 0 L -1109 0 L -1109 0 L -700.667 0 L -700.667 116.667 L -992.333 116.667 L -992.333 116.667 L -992.333 291.667 L -700.667 291.667 L -700.667 408.333 L -700.667 408.333 L -700.667 583.333 L -700.667 583.333 L -700.667 700 L -1109 700 L -1109 583.333 L -1109 583.333 L -1109 583.333 L -1109 583.333 L -817.333 583.333 L -817.333 408.333 L -817.333 408.333 L -817.333 408.333 L -817.333 408.333 L -817.333 408.333 L -817.333 408.333 L -817.333 408.333 L -817.333 408.333 L -817.333 408.333 L -817.333 408.333 L -817.333 408.333 L -817.333 408.333 Z  M -2684 0 L -2275.667 0 L -2275.667 408.333 L -2684 408.333 L -2684 0 L -2684 0 L -2684 0 L -2684 0 L -2684 0 L -2684 0 L -2684 0 L -2684 0 L -2684 0 L -2684 0 L -2684 0 L -2684 0 L -2684 0 L -2684 0 L -2684 0 L -2684 0 L -2684 0 L -2684 0 L -2684 0 L -2684 0 L -2684 0 L -2684 0 L -2684 0 L -2684 0 Z  M -2684 466.667 L -2567.333 466.667 L -2567.333 700 L -2684 700 L -2684 466.667 L -2684 466.667 L -2684 466.667 L -2684 466.667 L -2684 466.667 L -2684 466.667 L -2684 466.667 L -2684 466.667 L -2684 466.667 L -2684 466.667 L -2684 466.667 L -2684 466.667 L -2684 466.667 L -2684 466.667 L -2684 466.667 L -2684 466.667 L -2684 466.667 L -2684 466.667 L -2684 466.667 L -2684 466.667 L -2684 466.667 L -2684 466.667 L -2684 466.667 L -2684 466.667 Z  M -2217.333 466.667 L -2100.667 466.667 L -2100.667 700 L -2217.333 700 L -2217.333 466.667 L -2217.333 466.667 L -2217.333 466.667 L -2217.333 466.667 L -2217.333 466.667 L -2217.333 466.667 L -2217.333 466.667 L -2217.333 466.667 L -2217.333 466.667 L -2217.333 466.667 L -2217.333 466.667 L -2217.333 466.667 L -2217.333 466.667 L -2217.333 466.667 L -2217.333 466.667 L -2217.333 466.667 L -2217.333 466.667 L -2217.333 466.667 L -2217.333 466.667 L -2217.333 466.667 L -2217.333 466.667 L -2217.333 466.667 L -2217.333 466.667 Z  M -1925.667 583.333 L -1809 583.333 L -1809 700 L -1925.667 700 L -1925.667 583.333 L -1925.667 583.333 L -1925.667 583.333 L -1925.667 583.333 L -1925.667 583.333 L -1925.667 583.333 L -1925.667 583.333 L -1925.667 583.333 L -1925.667 583.333 L -1925.667 583.333 L -1925.667 583.333 L -1925.667 583.333 L -1925.667 583.333 L -1925.667 583.333 L -1925.667 583.333 L -1925.667 583.333 L -1925.667 583.333 L -1925.667 583.333 L -1925.667 583.333 L -1925.667 583.333 L -1925.667 583.333 L -1925.667 583.333 Z  M -2042.333 466.667 L -1925.667 466.667 L -1925.667 583.333 L -2042.333 583.333 L -2042.333 466.667 L -2042.333 466.667 L -2042.333 466.667 L -2042.333 466.667 L -2042.333 466.667 L -2042.333 466.667 L -2042.333 466.667 L -2042.333 466.667 L -2042.333 466.667 L -2042.333 466.667 L -2042.333 466.667 L -2042.333 466.667 L -2042.333 466.667 L -2042.333 466.667 L -2042.333 466.667 L -2042.333 466.667 L -2042.333 466.667 L -2042.333 466.667 L -2042.333 466.667 L -2042.333 466.667 L -2042.333 466.667 Z  M -2217.333 0 L -1809 0 L -1809 408.333 L -2217.333 408.333 L -2217.333 0 L -2217.333 0 L -2217.333 0 L -2217.333 0 L -2217.333 0 L -2217.333 0 L -2217.333 0 L -2217.333 0 L -2217.333 0 L -2217.333 0 L -2217.333 0 L -2217.333 0 L -2217.333 0 L -2217.333 0 L -2217.333 0 L -2217.333 0 L -2217.333 0 L -2217.333 0 Z  M -409 583.333 L -409 583.333 L -409 583.333 L -409 583.333 L -409 583.333 L -409 583.333 L -409 583.333 L -409 583.333 L -409 583.333 L -409 583.333 L -409 583.333 L -409 583.333 L -409 583.333 L -117.333 583.333 L -117.333 700 L -409 700 L -409 583.333 L -409 583.333 L -409 583.333 L -409 583.333 L -409 583.333 Z  M -1750.667 0 L -1634 0 L -1634 700 L -1750.667 700 L -1750.667 0 L -1750.667 0 L -1750.667 0 L -1750.667 0 L -1750.667 0 L -1750.667 0 L -1750.667 0 L -1750.667 0 L -1750.667 0 L -1750.667 0 L -1750.667 0 Z  M -642.333 0 L -525.667 0 L -525.667 700 L -642.333 700 L -642.333 0 L -642.333 0 L -642.333 0 L -642.333 0 L -642.333 0 L -642.333 0 L -642.333 0 L -642.333 0 L -642.333 0 L -642.333 0 Z  M -467.333 0 L -350.667 0 L -350.667 583.333 L -467.333 583.333 L -467.333 0 L -467.333 0 L -467.333 0 L -467.333 0 Z  M -175.667 0 L -59 0 L -59 583.333 L -175.667 583.333 L -175.667 0 L -175.667 0 L -175.667 0 Z  M -1575.667 0 L -1459 0 L -1459 700 L -1575.667 700 L -1575.667 0 L -1575.667 0 Z " fill-rule="evenodd" fill="rgb(255,255,255)"/></g></g></svg>