<?xml version="1.0" encoding="UTF-8" standalone="no"?><!-- Generator: Gravit.io --><svg xmlns="http://www.w3.org/2000/svg" xmlns:xlink="http://www.w3.org/1999/xlink" style="isolation:isolate" viewBox="0 0 408.3 700" width="408.3pt" height="700pt"><defs><clipPath id="_clipPath_kJl6KZEEDXWjCOIx4DVUVhbpnqMH5wz6"><rect width="408.3" height="700"/></clipPath></defs><g clip-path="url(#_clipPath_kJl6KZEEDXWjCOIx4DVUVhbpnqMH5wz6)"><rect width="408.3" height="700" style="fill:rgb(98,78,78)" fill-opacity="0"/><g><path d=" M 293 466.667 L 176.333 466.667 L 176.333 352.917 L 118 352.917 L 118 236.25 L 118 236.25 L 234.667 236.25 L 234.667 350 L 234.667 350 L 234.667 350 L 234.667 350 L 234.667 350 L 234.667 350 L 234.667 350 L 234.667 350 L 234.667 350 L 234.667 350 L 234.667 350 L 234.667 350 L 234.667 350 L 234.667 350 L 234.667 350 L 234.667 350 L 234.667 350 L 234.667 350 L 234.667 350 L 293 350 L 293 0 L 409.667 0 L 409.667 700 L 293 700 L 293 466.667 Z  M 1868 145.833 L 1838.833 145.833 L 1838.833 233.333 L 1722.167 233.333 L 1722.167 145.833 L 1693 145.833 L 1693 145.833 L 1693 700 L 1576.333 700 L 1576.333 0 L 1693 0 L 1693 29.167 L 1751.333 29.167 L 1751.333 116.667 L 1751.333 116.667 L 1809.667 116.667 L 1809.667 116.667 L 1809.667 29.167 L 1868 29.167 L 1868 0 L 1984.667 0 L 1984.667 700 L 1868 700 L 1868 145.833 L 1868 145.833 L 1868 145.833 L 1868 145.833 L 1868 145.833 Z  M 759.667 408.333 L 468 408.333 L 468 323.31 L 468 323.31 L 468 90.417 L 468 90.417 L 468 0 L 468 0 L 468 0 L 468 0 L 876.333 0 L 876.333 116.667 L 584.667 116.667 L 584.667 116.667 L 584.667 291.667 L 876.333 291.667 L 876.333 408.333 L 876.333 408.333 L 876.333 583.333 L 876.333 583.333 L 876.333 700 L 468 700 L 468 583.333 L 468 583.333 L 468 583.333 L 468 583.333 L 759.667 583.333 L 759.667 408.333 L 759.667 408.333 L 759.667 408.333 L 759.667 408.333 L 759.667 408.333 L 759.667 408.333 L 759.667 408.333 L 759.667 408.333 L 759.667 408.333 L 759.667 408.333 L 759.667 408.333 L 759.667 408.333 Z  M -1107 0 L -698.667 0 L -698.667 408.333 L -1107 408.333 L -1107 0 L -1107 0 L -1107 0 L -1107 0 L -1107 0 L -1107 0 L -1107 0 L -1107 0 L -1107 0 L -1107 0 L -1107 0 L -1107 0 L -1107 0 L -1107 0 L -1107 0 L -1107 0 L -1107 0 L -1107 0 L -1107 0 L -1107 0 L -1107 0 L -1107 0 L -1107 0 L -1107 0 Z  M -1107 466.667 L -990.333 466.667 L -990.333 700 L -1107 700 L -1107 466.667 L -1107 466.667 L -1107 466.667 L -1107 466.667 L -1107 466.667 L -1107 466.667 L -1107 466.667 L -1107 466.667 L -1107 466.667 L -1107 466.667 L -1107 466.667 L -1107 466.667 L -1107 466.667 L -1107 466.667 L -1107 466.667 L -1107 466.667 L -1107 466.667 L -1107 466.667 L -1107 466.667 L -1107 466.667 L -1107 466.667 L -1107 466.667 L -1107 466.667 L -1107 466.667 Z  M -640.333 466.667 L -523.667 466.667 L -523.667 700 L -640.333 700 L -640.333 466.667 L -640.333 466.667 L -640.333 466.667 L -640.333 466.667 L -640.333 466.667 L -640.333 466.667 L -640.333 466.667 L -640.333 466.667 L -640.333 466.667 L -640.333 466.667 L -640.333 466.667 L -640.333 466.667 L -640.333 466.667 L -640.333 466.667 L -640.333 466.667 L -640.333 466.667 L -640.333 466.667 L -640.333 466.667 L -640.333 466.667 L -640.333 466.667 L -640.333 466.667 L -640.333 466.667 L -640.333 466.667 Z  M -348.667 583.333 L -232 583.333 L -232 700 L -348.667 700 L -348.667 583.333 L -348.667 583.333 L -348.667 583.333 L -348.667 583.333 L -348.667 583.333 L -348.667 583.333 L -348.667 583.333 L -348.667 583.333 L -348.667 583.333 L -348.667 583.333 L -348.667 583.333 L -348.667 583.333 L -348.667 583.333 L -348.667 583.333 L -348.667 583.333 L -348.667 583.333 L -348.667 583.333 L -348.667 583.333 L -348.667 583.333 L -348.667 583.333 L -348.667 583.333 L -348.667 583.333 Z  M -465.333 466.667 L -348.667 466.667 L -348.667 583.333 L -465.333 583.333 L -465.333 466.667 L -465.333 466.667 L -465.333 466.667 L -465.333 466.667 L -465.333 466.667 L -465.333 466.667 L -465.333 466.667 L -465.333 466.667 L -465.333 466.667 L -465.333 466.667 L -465.333 466.667 L -465.333 466.667 L -465.333 466.667 L -465.333 466.667 L -465.333 466.667 L -465.333 466.667 L -465.333 466.667 L -465.333 466.667 L -465.333 466.667 L -465.333 466.667 L -465.333 466.667 Z  M -640.333 0 L -232 0 L -232 408.333 L -640.333 408.333 L -640.333 0 L -640.333 0 L -640.333 0 L -640.333 0 L -640.333 0 L -640.333 0 L -640.333 0 L -640.333 0 L -640.333 0 L -640.333 0 L -640.333 0 L -640.333 0 L -640.333 0 L -640.333 0 L -640.333 0 L -640.333 0 L -640.333 0 L -640.333 0 Z  M 1168 583.333 L 1168 583.333 L 1168 583.333 L 1168 583.333 L 1168 583.333 L 1168 583.333 L 1168 583.333 L 1168 583.333 L 1168 583.333 L 1168 583.333 L 1168 583.333 L 1168 583.333 L 1168 583.333 L 1459.667 583.333 L 1459.667 700 L 1168 700 L 1168 583.333 L 1168 583.333 L 1168 583.333 L 1168 583.333 L 1168 583.333 Z  M -173.667 0 L -57 0 L -57 700 L -173.667 700 L -173.667 0 L -173.667 0 L -173.667 0 L -173.667 0 L -173.667 0 L -173.667 0 L -173.667 0 L -173.667 0 L -173.667 0 L -173.667 0 L -173.667 0 Z  M 934.667 0 L 1051.333 0 L 1051.333 700 L 934.667 700 L 934.667 0 L 934.667 0 L 934.667 0 L 934.667 0 L 934.667 0 L 934.667 0 L 934.667 0 L 934.667 0 L 934.667 0 L 934.667 0 Z  M 1109.667 0 L 1226.333 0 L 1226.333 583.333 L 1109.667 583.333 L 1109.667 0 L 1109.667 0 L 1109.667 0 L 1109.667 0 Z  M 1401.333 0 L 1518 0 L 1518 583.333 L 1401.333 583.333 L 1401.333 0 L 1401.333 0 L 1401.333 0 Z  M 1.333 0 L 118 0 L 118 700 L 1.333 700 L 1.333 0 L 1.333 0 Z " fill-rule="evenodd" fill="rgb(255,255,255)"/></g></g></svg>