<?xml version="1.0" encoding="UTF-8" standalone="no"?><!-- Generator: Gravit.io --><svg xmlns="http://www.w3.org/2000/svg" xmlns:xlink="http://www.w3.org/1999/xlink" style="isolation:isolate" viewBox="0 0 408.3 700" width="408.3pt" height="700pt"><defs><clipPath id="_clipPath_izAqFzzscsgGHFvzJTte7g3WapHLeYDz"><rect width="408.3" height="700"/></clipPath></defs><g clip-path="url(#_clipPath_izAqFzzscsgGHFvzJTte7g3WapHLeYDz)"><rect width="408.3" height="700" style="fill:rgb(98,78,78)" fill-opacity="0"/><g><path d=" M 1400 466.667 L 1283.333 466.667 L 1283.333 352.917 L 1225 352.917 L 1225 236.25 L 1225 236.25 L 1341.667 236.25 L 1341.667 350 L 1341.667 350 L 1341.667 350 L 1341.667 350 L 1341.667 350 L 1341.667 350 L 1341.667 350 L 1341.667 350 L 1341.667 350 L 1341.667 350 L 1341.667 350 L 1341.667 350 L 1341.667 350 L 1341.667 350 L 1341.667 350 L 1341.667 350 L 1341.667 350 L 1341.667 350 L 1341.667 350 L 1400 350 L 1400 0 L 1516.667 0 L 1516.667 700 L 1400 700 L 1400 466.667 Z  M 2975 145.833 L 2945.833 145.833 L 2945.833 233.333 L 2829.167 233.333 L 2829.167 145.833 L 2800 145.833 L 2800 145.833 L 2800 700 L 2683.333 700 L 2683.333 0 L 2800 0 L 2800 29.167 L 2858.333 29.167 L 2858.333 116.667 L 2858.333 116.667 L 2916.667 116.667 L 2916.667 116.667 L 2916.667 29.167 L 2975 29.167 L 2975 0 L 3091.667 0 L 3091.667 700 L 2975 700 L 2975 145.833 L 2975 145.833 L 2975 145.833 L 2975 145.833 L 2975 145.833 Z  M 1866.667 408.333 L 1575 408.333 L 1575 323.31 L 1575 323.31 L 1575 90.417 L 1575 90.417 L 1575 0 L 1575 0 L 1575 0 L 1575 0 L 1983.333 0 L 1983.333 116.667 L 1691.667 116.667 L 1691.667 116.667 L 1691.667 291.667 L 1983.333 291.667 L 1983.333 408.333 L 1983.333 408.333 L 1983.333 583.333 L 1983.333 583.333 L 1983.333 700 L 1575 700 L 1575 583.333 L 1575 583.333 L 1575 583.333 L 1575 583.333 L 1866.667 583.333 L 1866.667 408.333 L 1866.667 408.333 L 1866.667 408.333 L 1866.667 408.333 L 1866.667 408.333 L 1866.667 408.333 L 1866.667 408.333 L 1866.667 408.333 L 1866.667 408.333 L 1866.667 408.333 L 1866.667 408.333 L 1866.667 408.333 Z  M 0 0 L 408.333 0 L 408.333 408.333 L 0 408.333 L 0 0 L 0 0 L 0 0 L 0 0 L 0 0 L 0 0 L 0 0 L 0 0 L 0 0 L 0 0 L 0 0 L 0 0 L 0 0 L 0 0 L 0 0 L 0 0 L 0 0 L 0 0 L 0 0 L 0 0 L 0 0 L 0 0 L 0 0 L 0 0 Z  M 0 466.667 L 116.667 466.667 L 116.667 700 L 0 700 L 0 466.667 L 0 466.667 L 0 466.667 L 0 466.667 L 0 466.667 L 0 466.667 L 0 466.667 L 0 466.667 L 0 466.667 L 0 466.667 L 0 466.667 L 0 466.667 L 0 466.667 L 0 466.667 L 0 466.667 L 0 466.667 L 0 466.667 L 0 466.667 L 0 466.667 L 0 466.667 L 0 466.667 L 0 466.667 L 0 466.667 L 0 466.667 Z  M 466.667 466.667 L 583.333 466.667 L 583.333 700 L 466.667 700 L 466.667 466.667 L 466.667 466.667 L 466.667 466.667 L 466.667 466.667 L 466.667 466.667 L 466.667 466.667 L 466.667 466.667 L 466.667 466.667 L 466.667 466.667 L 466.667 466.667 L 466.667 466.667 L 466.667 466.667 L 466.667 466.667 L 466.667 466.667 L 466.667 466.667 L 466.667 466.667 L 466.667 466.667 L 466.667 466.667 L 466.667 466.667 L 466.667 466.667 L 466.667 466.667 L 466.667 466.667 L 466.667 466.667 Z  M 758.333 583.333 L 875 583.333 L 875 700 L 758.333 700 L 758.333 583.333 L 758.333 583.333 L 758.333 583.333 L 758.333 583.333 L 758.333 583.333 L 758.333 583.333 L 758.333 583.333 L 758.333 583.333 L 758.333 583.333 L 758.333 583.333 L 758.333 583.333 L 758.333 583.333 L 758.333 583.333 L 758.333 583.333 L 758.333 583.333 L 758.333 583.333 L 758.333 583.333 L 758.333 583.333 L 758.333 583.333 L 758.333 583.333 L 758.333 583.333 L 758.333 583.333 Z  M 641.667 466.667 L 758.333 466.667 L 758.333 583.333 L 641.667 583.333 L 641.667 466.667 L 641.667 466.667 L 641.667 466.667 L 641.667 466.667 L 641.667 466.667 L 641.667 466.667 L 641.667 466.667 L 641.667 466.667 L 641.667 466.667 L 641.667 466.667 L 641.667 466.667 L 641.667 466.667 L 641.667 466.667 L 641.667 466.667 L 641.667 466.667 L 641.667 466.667 L 641.667 466.667 L 641.667 466.667 L 641.667 466.667 L 641.667 466.667 L 641.667 466.667 Z  M 466.667 0 L 875 0 L 875 408.333 L 466.667 408.333 L 466.667 0 L 466.667 0 L 466.667 0 L 466.667 0 L 466.667 0 L 466.667 0 L 466.667 0 L 466.667 0 L 466.667 0 L 466.667 0 L 466.667 0 L 466.667 0 L 466.667 0 L 466.667 0 L 466.667 0 L 466.667 0 L 466.667 0 L 466.667 0 Z  M 2275 583.333 L 2275 583.333 L 2275 583.333 L 2275 583.333 L 2275 583.333 L 2275 583.333 L 2275 583.333 L 2275 583.333 L 2275 583.333 L 2275 583.333 L 2275 583.333 L 2275 583.333 L 2275 583.333 L 2566.667 583.333 L 2566.667 700 L 2275 700 L 2275 583.333 L 2275 583.333 L 2275 583.333 L 2275 583.333 L 2275 583.333 Z  M 933.333 0 L 1050 0 L 1050 700 L 933.333 700 L 933.333 0 L 933.333 0 L 933.333 0 L 933.333 0 L 933.333 0 L 933.333 0 L 933.333 0 L 933.333 0 L 933.333 0 L 933.333 0 L 933.333 0 Z  M 2041.667 0 L 2158.333 0 L 2158.333 700 L 2041.667 700 L 2041.667 0 L 2041.667 0 L 2041.667 0 L 2041.667 0 L 2041.667 0 L 2041.667 0 L 2041.667 0 L 2041.667 0 L 2041.667 0 L 2041.667 0 Z  M 2216.667 0 L 2333.333 0 L 2333.333 583.333 L 2216.667 583.333 L 2216.667 0 L 2216.667 0 L 2216.667 0 L 2216.667 0 Z  M 2508.333 0 L 2625 0 L 2625 583.333 L 2508.333 583.333 L 2508.333 0 L 2508.333 0 L 2508.333 0 Z  M 1108.333 0 L 1225 0 L 1225 700 L 1108.333 700 L 1108.333 0 L 1108.333 0 Z " fill-rule="evenodd" fill="rgb(255,255,255)"/></g></g></svg>