<?xml version="1.0" encoding="UTF-8" standalone="no"?><!-- Generator: Gravit.io --><svg xmlns="http://www.w3.org/2000/svg" xmlns:xlink="http://www.w3.org/1999/xlink" style="isolation:isolate" viewBox="0 0 408.3 700" width="408.3pt" height="700pt"><defs><clipPath id="_clipPath_xdF174Zl33hkCN1L73Ohde52WOHrNftg"><rect width="408.3" height="700"/></clipPath></defs><g clip-path="url(#_clipPath_xdF174Zl33hkCN1L73Ohde52WOHrNftg)"><rect width="408.3" height="700" style="fill:rgb(98,78,78)" fill-opacity="0"/><g><path d=" M 934 466.667 L 817.333 466.667 L 817.333 352.917 L 759 352.917 L 759 236.25 L 759 236.25 L 875.667 236.25 L 875.667 350 L 875.667 350 L 875.667 350 L 875.667 350 L 875.667 350 L 875.667 350 L 875.667 350 L 875.667 350 L 875.667 350 L 875.667 350 L 875.667 350 L 875.667 350 L 875.667 350 L 875.667 350 L 875.667 350 L 875.667 350 L 875.667 350 L 875.667 350 L 875.667 350 L 934 350 L 934 0 L 1050.667 0 L 1050.667 700 L 934 700 L 934 466.667 Z  M 2509 145.833 L 2479.833 145.833 L 2479.833 233.333 L 2363.167 233.333 L 2363.167 145.833 L 2334 145.833 L 2334 145.833 L 2334 700 L 2217.333 700 L 2217.333 0 L 2334 0 L 2334 29.167 L 2392.333 29.167 L 2392.333 116.667 L 2392.333 116.667 L 2450.667 116.667 L 2450.667 116.667 L 2450.667 29.167 L 2509 29.167 L 2509 0 L 2625.667 0 L 2625.667 700 L 2509 700 L 2509 145.833 L 2509 145.833 L 2509 145.833 L 2509 145.833 L 2509 145.833 Z  M 1400.667 408.333 L 1109 408.333 L 1109 323.31 L 1109 323.31 L 1109 90.417 L 1109 90.417 L 1109 0 L 1109 0 L 1109 0 L 1109 0 L 1517.333 0 L 1517.333 116.667 L 1225.667 116.667 L 1225.667 116.667 L 1225.667 291.667 L 1517.333 291.667 L 1517.333 408.333 L 1517.333 408.333 L 1517.333 583.333 L 1517.333 583.333 L 1517.333 700 L 1109 700 L 1109 583.333 L 1109 583.333 L 1109 583.333 L 1109 583.333 L 1400.667 583.333 L 1400.667 408.333 L 1400.667 408.333 L 1400.667 408.333 L 1400.667 408.333 L 1400.667 408.333 L 1400.667 408.333 L 1400.667 408.333 L 1400.667 408.333 L 1400.667 408.333 L 1400.667 408.333 L 1400.667 408.333 L 1400.667 408.333 Z  M -466 0 L -57.667 0 L -57.667 408.333 L -466 408.333 L -466 0 L -466 0 L -466 0 L -466 0 L -466 0 L -466 0 L -466 0 L -466 0 L -466 0 L -466 0 L -466 0 L -466 0 L -466 0 L -466 0 L -466 0 L -466 0 L -466 0 L -466 0 L -466 0 L -466 0 L -466 0 L -466 0 L -466 0 L -466 0 Z  M -466 466.667 L -349.333 466.667 L -349.333 700 L -466 700 L -466 466.667 L -466 466.667 L -466 466.667 L -466 466.667 L -466 466.667 L -466 466.667 L -466 466.667 L -466 466.667 L -466 466.667 L -466 466.667 L -466 466.667 L -466 466.667 L -466 466.667 L -466 466.667 L -466 466.667 L -466 466.667 L -466 466.667 L -466 466.667 L -466 466.667 L -466 466.667 L -466 466.667 L -466 466.667 L -466 466.667 L -466 466.667 Z  M 0.667 466.667 L 117.333 466.667 L 117.333 700 L 0.667 700 L 0.667 466.667 L 0.667 466.667 L 0.667 466.667 L 0.667 466.667 L 0.667 466.667 L 0.667 466.667 L 0.667 466.667 L 0.667 466.667 L 0.667 466.667 L 0.667 466.667 L 0.667 466.667 L 0.667 466.667 L 0.667 466.667 L 0.667 466.667 L 0.667 466.667 L 0.667 466.667 L 0.667 466.667 L 0.667 466.667 L 0.667 466.667 L 0.667 466.667 L 0.667 466.667 L 0.667 466.667 L 0.667 466.667 Z  M 292.333 583.333 L 409 583.333 L 409 700 L 292.333 700 L 292.333 583.333 L 292.333 583.333 L 292.333 583.333 L 292.333 583.333 L 292.333 583.333 L 292.333 583.333 L 292.333 583.333 L 292.333 583.333 L 292.333 583.333 L 292.333 583.333 L 292.333 583.333 L 292.333 583.333 L 292.333 583.333 L 292.333 583.333 L 292.333 583.333 L 292.333 583.333 L 292.333 583.333 L 292.333 583.333 L 292.333 583.333 L 292.333 583.333 L 292.333 583.333 L 292.333 583.333 Z  M 175.667 466.667 L 292.333 466.667 L 292.333 583.333 L 175.667 583.333 L 175.667 466.667 L 175.667 466.667 L 175.667 466.667 L 175.667 466.667 L 175.667 466.667 L 175.667 466.667 L 175.667 466.667 L 175.667 466.667 L 175.667 466.667 L 175.667 466.667 L 175.667 466.667 L 175.667 466.667 L 175.667 466.667 L 175.667 466.667 L 175.667 466.667 L 175.667 466.667 L 175.667 466.667 L 175.667 466.667 L 175.667 466.667 L 175.667 466.667 L 175.667 466.667 Z  M 0.667 0 L 409 0 L 409 408.333 L 0.667 408.333 L 0.667 0 L 0.667 0 L 0.667 0 L 0.667 0 L 0.667 0 L 0.667 0 L 0.667 0 L 0.667 0 L 0.667 0 L 0.667 0 L 0.667 0 L 0.667 0 L 0.667 0 L 0.667 0 L 0.667 0 L 0.667 0 L 0.667 0 L 0.667 0 Z  M 1809 583.333 L 1809 583.333 L 1809 583.333 L 1809 583.333 L 1809 583.333 L 1809 583.333 L 1809 583.333 L 1809 583.333 L 1809 583.333 L 1809 583.333 L 1809 583.333 L 1809 583.333 L 1809 583.333 L 2100.667 583.333 L 2100.667 700 L 1809 700 L 1809 583.333 L 1809 583.333 L 1809 583.333 L 1809 583.333 L 1809 583.333 Z  M 467.333 0 L 584 0 L 584 700 L 467.333 700 L 467.333 0 L 467.333 0 L 467.333 0 L 467.333 0 L 467.333 0 L 467.333 0 L 467.333 0 L 467.333 0 L 467.333 0 L 467.333 0 L 467.333 0 Z  M 1575.667 0 L 1692.333 0 L 1692.333 700 L 1575.667 700 L 1575.667 0 L 1575.667 0 L 1575.667 0 L 1575.667 0 L 1575.667 0 L 1575.667 0 L 1575.667 0 L 1575.667 0 L 1575.667 0 L 1575.667 0 Z  M 1750.667 0 L 1867.333 0 L 1867.333 583.333 L 1750.667 583.333 L 1750.667 0 L 1750.667 0 L 1750.667 0 L 1750.667 0 Z  M 2042.333 0 L 2159 0 L 2159 583.333 L 2042.333 583.333 L 2042.333 0 L 2042.333 0 L 2042.333 0 Z  M 642.333 0 L 759 0 L 759 700 L 642.333 700 L 642.333 0 L 642.333 0 Z " fill-rule="evenodd" fill="rgb(255,255,255)"/></g></g></svg>