<?xml version="1.0" encoding="UTF-8" standalone="no"?><!-- Generator: Gravit.io --><svg xmlns="http://www.w3.org/2000/svg" xmlns:xlink="http://www.w3.org/1999/xlink" style="isolation:isolate" viewBox="0 0 408.3 700" width="408.3pt" height="700pt"><defs><clipPath id="_clipPath_QcPQCRAMJLyDMm9d08eiwCT56NolxkoD"><rect width="408.3" height="700"/></clipPath></defs><g clip-path="url(#_clipPath_QcPQCRAMJLyDMm9d08eiwCT56NolxkoD)"><rect width="408.3" height="700" style="fill:rgb(98,78,78)" fill-opacity="0"/><g><path d=" M -175 466.667 L -291.667 466.667 L -291.667 352.917 L -350 352.917 L -350 236.25 L -350 236.25 L -233.333 236.25 L -233.333 350 L -233.333 350 L -233.333 350 L -233.333 350 L -233.333 350 L -233.333 350 L -233.333 350 L -233.333 350 L -233.333 350 L -233.333 350 L -233.333 350 L -233.333 350 L -233.333 350 L -233.333 350 L -233.333 350 L -233.333 350 L -233.333 350 L -233.333 350 L -233.333 350 L -175 350 L -175 0 L -58.333 0 L -58.333 700 L -175 700 L -175 466.667 Z  M 1400 145.833 L 1370.833 145.833 L 1370.833 233.333 L 1254.167 233.333 L 1254.167 145.833 L 1225 145.833 L 1225 145.833 L 1225 700 L 1108.333 700 L 1108.333 0 L 1225 0 L 1225 29.167 L 1283.333 29.167 L 1283.333 116.667 L 1283.333 116.667 L 1341.667 116.667 L 1341.667 116.667 L 1341.667 29.167 L 1400 29.167 L 1400 0 L 1516.667 0 L 1516.667 700 L 1400 700 L 1400 145.833 L 1400 145.833 L 1400 145.833 L 1400 145.833 L 1400 145.833 Z  M 291.667 408.333 L 0 408.333 L 0 323.31 L 0 323.31 L 0 90.417 L 0 90.417 L 0 0 L 0 0 L 0 0 L 0 0 L 408.333 0 L 408.333 116.667 L 116.667 116.667 L 116.667 116.667 L 116.667 291.667 L 408.333 291.667 L 408.333 408.333 L 408.333 408.333 L 408.333 583.333 L 408.333 583.333 L 408.333 700 L 0 700 L 0 583.333 L 0 583.333 L 0 583.333 L 0 583.333 L 291.667 583.333 L 291.667 408.333 L 291.667 408.333 L 291.667 408.333 L 291.667 408.333 L 291.667 408.333 L 291.667 408.333 L 291.667 408.333 L 291.667 408.333 L 291.667 408.333 L 291.667 408.333 L 291.667 408.333 L 291.667 408.333 Z  M -1575 0 L -1166.667 0 L -1166.667 408.333 L -1575 408.333 L -1575 0 L -1575 0 L -1575 0 L -1575 0 L -1575 0 L -1575 0 L -1575 0 L -1575 0 L -1575 0 L -1575 0 L -1575 0 L -1575 0 L -1575 0 L -1575 0 L -1575 0 L -1575 0 L -1575 0 L -1575 0 L -1575 0 L -1575 0 L -1575 0 L -1575 0 L -1575 0 L -1575 0 Z  M -1575 466.667 L -1458.333 466.667 L -1458.333 700 L -1575 700 L -1575 466.667 L -1575 466.667 L -1575 466.667 L -1575 466.667 L -1575 466.667 L -1575 466.667 L -1575 466.667 L -1575 466.667 L -1575 466.667 L -1575 466.667 L -1575 466.667 L -1575 466.667 L -1575 466.667 L -1575 466.667 L -1575 466.667 L -1575 466.667 L -1575 466.667 L -1575 466.667 L -1575 466.667 L -1575 466.667 L -1575 466.667 L -1575 466.667 L -1575 466.667 L -1575 466.667 Z  M -1108.333 466.667 L -991.667 466.667 L -991.667 700 L -1108.333 700 L -1108.333 466.667 L -1108.333 466.667 L -1108.333 466.667 L -1108.333 466.667 L -1108.333 466.667 L -1108.333 466.667 L -1108.333 466.667 L -1108.333 466.667 L -1108.333 466.667 L -1108.333 466.667 L -1108.333 466.667 L -1108.333 466.667 L -1108.333 466.667 L -1108.333 466.667 L -1108.333 466.667 L -1108.333 466.667 L -1108.333 466.667 L -1108.333 466.667 L -1108.333 466.667 L -1108.333 466.667 L -1108.333 466.667 L -1108.333 466.667 L -1108.333 466.667 Z  M -816.667 583.333 L -700 583.333 L -700 700 L -816.667 700 L -816.667 583.333 L -816.667 583.333 L -816.667 583.333 L -816.667 583.333 L -816.667 583.333 L -816.667 583.333 L -816.667 583.333 L -816.667 583.333 L -816.667 583.333 L -816.667 583.333 L -816.667 583.333 L -816.667 583.333 L -816.667 583.333 L -816.667 583.333 L -816.667 583.333 L -816.667 583.333 L -816.667 583.333 L -816.667 583.333 L -816.667 583.333 L -816.667 583.333 L -816.667 583.333 L -816.667 583.333 Z  M -933.333 466.667 L -816.667 466.667 L -816.667 583.333 L -933.333 583.333 L -933.333 466.667 L -933.333 466.667 L -933.333 466.667 L -933.333 466.667 L -933.333 466.667 L -933.333 466.667 L -933.333 466.667 L -933.333 466.667 L -933.333 466.667 L -933.333 466.667 L -933.333 466.667 L -933.333 466.667 L -933.333 466.667 L -933.333 466.667 L -933.333 466.667 L -933.333 466.667 L -933.333 466.667 L -933.333 466.667 L -933.333 466.667 L -933.333 466.667 L -933.333 466.667 Z  M -1108.333 0 L -700 0 L -700 408.333 L -1108.333 408.333 L -1108.333 0 L -1108.333 0 L -1108.333 0 L -1108.333 0 L -1108.333 0 L -1108.333 0 L -1108.333 0 L -1108.333 0 L -1108.333 0 L -1108.333 0 L -1108.333 0 L -1108.333 0 L -1108.333 0 L -1108.333 0 L -1108.333 0 L -1108.333 0 L -1108.333 0 L -1108.333 0 Z  M 700 583.333 L 700 583.333 L 700 583.333 L 700 583.333 L 700 583.333 L 700 583.333 L 700 583.333 L 700 583.333 L 700 583.333 L 700 583.333 L 700 583.333 L 700 583.333 L 700 583.333 L 991.667 583.333 L 991.667 700 L 700 700 L 700 583.333 L 700 583.333 L 700 583.333 L 700 583.333 L 700 583.333 Z  M -641.667 0 L -525 0 L -525 700 L -641.667 700 L -641.667 0 L -641.667 0 L -641.667 0 L -641.667 0 L -641.667 0 L -641.667 0 L -641.667 0 L -641.667 0 L -641.667 0 L -641.667 0 L -641.667 0 Z  M 466.667 0 L 583.333 0 L 583.333 700 L 466.667 700 L 466.667 0 L 466.667 0 L 466.667 0 L 466.667 0 L 466.667 0 L 466.667 0 L 466.667 0 L 466.667 0 L 466.667 0 L 466.667 0 Z  M 641.667 0 L 758.333 0 L 758.333 583.333 L 641.667 583.333 L 641.667 0 L 641.667 0 L 641.667 0 L 641.667 0 Z  M 933.333 0 L 1050 0 L 1050 583.333 L 933.333 583.333 L 933.333 0 L 933.333 0 L 933.333 0 Z  M -466.667 0 L -350 0 L -350 700 L -466.667 700 L -466.667 0 L -466.667 0 Z " fill-rule="evenodd" fill="rgb(255,255,255)"/></g></g></svg>