<?xml version="1.0" encoding="UTF-8" standalone="no"?><!-- Generator: Gravit.io --><svg xmlns="http://www.w3.org/2000/svg" xmlns:xlink="http://www.w3.org/1999/xlink" style="isolation:isolate" viewBox="0 0 408.3 700" width="408.3pt" height="700pt"><defs><clipPath id="_clipPath_YcYKpIic6BNTKzsByki718zchvdRcsva"><rect width="408.3" height="700"/></clipPath></defs><g clip-path="url(#_clipPath_YcYKpIic6BNTKzsByki718zchvdRcsva)"><rect width="408.3" height="700" style="fill:rgb(98,78,78)" fill-opacity="0"/><g><path d=" M -817 466.667 L -933.667 466.667 L -933.667 352.917 L -992 352.917 L -992 236.25 L -992 236.25 L -875.333 236.25 L -875.333 350 L -875.333 350 L -875.333 350 L -875.333 350 L -875.333 350 L -875.333 350 L -875.333 350 L -875.333 350 L -875.333 350 L -875.333 350 L -875.333 350 L -875.333 350 L -875.333 350 L -875.333 350 L -875.333 350 L -875.333 350 L -875.333 350 L -875.333 350 L -875.333 350 L -817 350 L -817 0 L -700.333 0 L -700.333 700 L -817 700 L -817 466.667 Z  M 758 145.833 L 728.833 145.833 L 728.833 233.333 L 612.167 233.333 L 612.167 145.833 L 583 145.833 L 583 145.833 L 583 700 L 466.333 700 L 466.333 0 L 583 0 L 583 29.167 L 641.333 29.167 L 641.333 116.667 L 641.333 116.667 L 699.667 116.667 L 699.667 116.667 L 699.667 29.167 L 758 29.167 L 758 0 L 874.667 0 L 874.667 700 L 758 700 L 758 145.833 L 758 145.833 L 758 145.833 L 758 145.833 L 758 145.833 Z  M -350.333 408.333 L -642 408.333 L -642 323.31 L -642 323.31 L -642 90.417 L -642 90.417 L -642 0 L -642 0 L -642 0 L -642 0 L -233.667 0 L -233.667 116.667 L -525.333 116.667 L -525.333 116.667 L -525.333 291.667 L -233.667 291.667 L -233.667 408.333 L -233.667 408.333 L -233.667 583.333 L -233.667 583.333 L -233.667 700 L -642 700 L -642 583.333 L -642 583.333 L -642 583.333 L -642 583.333 L -350.333 583.333 L -350.333 408.333 L -350.333 408.333 L -350.333 408.333 L -350.333 408.333 L -350.333 408.333 L -350.333 408.333 L -350.333 408.333 L -350.333 408.333 L -350.333 408.333 L -350.333 408.333 L -350.333 408.333 L -350.333 408.333 Z  M -2217 0 L -1808.667 0 L -1808.667 408.333 L -2217 408.333 L -2217 0 L -2217 0 L -2217 0 L -2217 0 L -2217 0 L -2217 0 L -2217 0 L -2217 0 L -2217 0 L -2217 0 L -2217 0 L -2217 0 L -2217 0 L -2217 0 L -2217 0 L -2217 0 L -2217 0 L -2217 0 L -2217 0 L -2217 0 L -2217 0 L -2217 0 L -2217 0 L -2217 0 Z  M -2217 466.667 L -2100.333 466.667 L -2100.333 700 L -2217 700 L -2217 466.667 L -2217 466.667 L -2217 466.667 L -2217 466.667 L -2217 466.667 L -2217 466.667 L -2217 466.667 L -2217 466.667 L -2217 466.667 L -2217 466.667 L -2217 466.667 L -2217 466.667 L -2217 466.667 L -2217 466.667 L -2217 466.667 L -2217 466.667 L -2217 466.667 L -2217 466.667 L -2217 466.667 L -2217 466.667 L -2217 466.667 L -2217 466.667 L -2217 466.667 L -2217 466.667 Z  M -1750.333 466.667 L -1633.667 466.667 L -1633.667 700 L -1750.333 700 L -1750.333 466.667 L -1750.333 466.667 L -1750.333 466.667 L -1750.333 466.667 L -1750.333 466.667 L -1750.333 466.667 L -1750.333 466.667 L -1750.333 466.667 L -1750.333 466.667 L -1750.333 466.667 L -1750.333 466.667 L -1750.333 466.667 L -1750.333 466.667 L -1750.333 466.667 L -1750.333 466.667 L -1750.333 466.667 L -1750.333 466.667 L -1750.333 466.667 L -1750.333 466.667 L -1750.333 466.667 L -1750.333 466.667 L -1750.333 466.667 L -1750.333 466.667 Z  M -1458.667 583.333 L -1342 583.333 L -1342 700 L -1458.667 700 L -1458.667 583.333 L -1458.667 583.333 L -1458.667 583.333 L -1458.667 583.333 L -1458.667 583.333 L -1458.667 583.333 L -1458.667 583.333 L -1458.667 583.333 L -1458.667 583.333 L -1458.667 583.333 L -1458.667 583.333 L -1458.667 583.333 L -1458.667 583.333 L -1458.667 583.333 L -1458.667 583.333 L -1458.667 583.333 L -1458.667 583.333 L -1458.667 583.333 L -1458.667 583.333 L -1458.667 583.333 L -1458.667 583.333 L -1458.667 583.333 Z  M -1575.333 466.667 L -1458.667 466.667 L -1458.667 583.333 L -1575.333 583.333 L -1575.333 466.667 L -1575.333 466.667 L -1575.333 466.667 L -1575.333 466.667 L -1575.333 466.667 L -1575.333 466.667 L -1575.333 466.667 L -1575.333 466.667 L -1575.333 466.667 L -1575.333 466.667 L -1575.333 466.667 L -1575.333 466.667 L -1575.333 466.667 L -1575.333 466.667 L -1575.333 466.667 L -1575.333 466.667 L -1575.333 466.667 L -1575.333 466.667 L -1575.333 466.667 L -1575.333 466.667 L -1575.333 466.667 Z  M -1750.333 0 L -1342 0 L -1342 408.333 L -1750.333 408.333 L -1750.333 0 L -1750.333 0 L -1750.333 0 L -1750.333 0 L -1750.333 0 L -1750.333 0 L -1750.333 0 L -1750.333 0 L -1750.333 0 L -1750.333 0 L -1750.333 0 L -1750.333 0 L -1750.333 0 L -1750.333 0 L -1750.333 0 L -1750.333 0 L -1750.333 0 L -1750.333 0 Z  M 58 583.333 L 58 583.333 L 58 583.333 L 58 583.333 L 58 583.333 L 58 583.333 L 58 583.333 L 58 583.333 L 58 583.333 L 58 583.333 L 58 583.333 L 58 583.333 L 58 583.333 L 349.667 583.333 L 349.667 700 L 58 700 L 58 583.333 L 58 583.333 L 58 583.333 L 58 583.333 L 58 583.333 Z  M -1283.667 0 L -1167 0 L -1167 700 L -1283.667 700 L -1283.667 0 L -1283.667 0 L -1283.667 0 L -1283.667 0 L -1283.667 0 L -1283.667 0 L -1283.667 0 L -1283.667 0 L -1283.667 0 L -1283.667 0 L -1283.667 0 Z  M -175.333 0 L -58.667 0 L -58.667 700 L -175.333 700 L -175.333 0 L -175.333 0 L -175.333 0 L -175.333 0 L -175.333 0 L -175.333 0 L -175.333 0 L -175.333 0 L -175.333 0 L -175.333 0 Z  M -0.333 0 L 116.333 0 L 116.333 583.333 L -0.333 583.333 L -0.333 0 L -0.333 0 L -0.333 0 L -0.333 0 Z  M 291.333 0 L 408 0 L 408 583.333 L 291.333 583.333 L 291.333 0 L 291.333 0 L 291.333 0 Z  M -1108.667 0 L -992 0 L -992 700 L -1108.667 700 L -1108.667 0 L -1108.667 0 Z " fill-rule="evenodd" fill="rgb(255,255,255)"/></g></g></svg>