<?xml version="1.0" encoding="UTF-8" standalone="no"?><!-- Generator: Gravit.io --><svg xmlns="http://www.w3.org/2000/svg" xmlns:xlink="http://www.w3.org/1999/xlink" style="isolation:isolate" viewBox="0 0 200 200" width="200pt" height="200pt"><defs><clipPath id="_clipPath_0wygK9F2oJ9XdsV5DTb8wr6FPQCIQDJp"><rect width="200" height="200"/></clipPath></defs><g clip-path="url(#_clipPath_0wygK9F2oJ9XdsV5DTb8wr6FPQCIQDJp)"><path d=" M 10 81.471 L 115.882 81.471 L 115.882 118.529 L 10 118.529 L 10 81.471 L 10 81.471 L 10 81.471 L 10 81.471 L 10 81.471 Z  M 115.882 44.412 L 115.882 44.412 L 115.882 44.412 L 115.882 44.412 L 152.941 44.412 L 152.941 81.471 L 152.941 81.471 L 115.882 81.471 L 115.882 44.412 L 115.882 44.412 Z  M 152.941 81.471 L 190 81.471 L 190 118.529 L 152.941 118.529 L 152.941 81.471 L 152.941 81.471 L 152.941 81.471 L 152.941 81.471 Z  M 115.882 118.529 L 115.882 118.529 L 152.941 118.529 L 152.941 155.588 L 115.882 155.588 L 115.882 118.529 L 115.882 118.529 L 115.882 118.529 Z  M 78.824 155.588 L 115.882 155.588 L 115.882 192.647 L 78.824 192.647 L 78.824 155.588 L 78.824 155.588 Z  M 78.824 7.353 L 115.882 7.353 L 115.882 44.412 L 78.824 44.412 L 78.824 7.353 Z " fill-rule="evenodd" fill="rgb(255,255,255)"/></g></svg>