<?xml version="1.0" encoding="UTF-8" standalone="no"?><!-- Generator: Gravit.io --><svg xmlns="http://www.w3.org/2000/svg" xmlns:xlink="http://www.w3.org/1999/xlink" style="isolation:isolate" viewBox="0 0 250 200" width="250pt" height="200pt"><defs><clipPath id="_clipPath_mxSYjmVj0A1Ehi0MlmIJDCAtWuMhAeVT"><rect width="250" height="200"/></clipPath></defs><g clip-path="url(#_clipPath_mxSYjmVj0A1Ehi0MlmIJDCAtWuMhAeVT)"><g><clipPath id="_clipPath_eA5cmQ68yaJdfCVdc5T5LjQH6Su3odmt"><rect x="50" y="0" width="200" height="200" transform="matrix(1,0,0,1,0,0)" fill="rgb(255,255,255)"/></clipPath><g clip-path="url(#_clipPath_eA5cmQ68yaJdfCVdc5T5LjQH6Su3odmt)"><g><path d=" M 60 81.471 L 165.882 81.471 L 165.882 118.529 L 60 118.529 L 60 81.471 L 60 81.471 L 60 81.471 L 60 81.471 L 60 81.471 Z  M 165.882 44.412 L 165.882 44.412 L 165.882 44.412 L 165.882 44.412 L 202.941 44.412 L 202.941 81.471 L 202.941 81.471 L 165.882 81.471 L 165.882 44.412 L 165.882 44.412 Z  M 202.941 81.471 L 240 81.471 L 240 118.529 L 202.941 118.529 L 202.941 81.471 L 202.941 81.471 L 202.941 81.471 L 202.941 81.471 Z  M 165.882 118.529 L 165.882 118.529 L 202.941 118.529 L 202.941 155.588 L 165.882 155.588 L 165.882 118.529 L 165.882 118.529 L 165.882 118.529 Z  M 128.824 155.588 L 165.882 155.588 L 165.882 192.647 L 128.824 192.647 L 128.824 155.588 L 128.824 155.588 Z  M 128.824 7.353 L 165.882 7.353 L 165.882 44.412 L 128.824 44.412 L 128.824 7.353 Z " fill-rule="evenodd" fill="rgb(255,255,255)"/></g></g><rect x="10" y="81.5" width="54" height="37" transform="matrix(1,0,0,1,0,0)" fill="rgb(255,255,255)"/></g></g></svg>