<?xml version="1.0" encoding="UTF-8" standalone="no"?><!-- Generator: Gravit.io --><svg xmlns="http://www.w3.org/2000/svg" xmlns:xlink="http://www.w3.org/1999/xlink" style="isolation:isolate" viewBox="0 0 120 200" width="120pt" height="200pt"><defs><clipPath id="_clipPath_IQnKulZ2Rv9k3VORF1th9hXkS6rmVSED"><rect width="120" height="200"/></clipPath></defs><g clip-path="url(#_clipPath_IQnKulZ2Rv9k3VORF1th9hXkS6rmVSED)"><path d=" M 40 40 L 80 40 L 80 80 L 80 80 L 40 80 L 40 40 L 40 40 Z  M 80 80 L 120 80 L 120 120 L 80 120 L 80 80 L 80 80 L 80 80 L 80 80 Z  M 40 120 L 80 120 L 80 160 L 40 160 L 40 120 L 40 120 L 40 120 Z  M 0 160 L 40 160 L 40 200 L 0 200 L 0 160 L 0 160 Z  M 0 0 L 40 0 L 40 40 L 0 40 L 0 0 Z " fill-rule="evenodd" fill="rgb(255,255,255)"/></g></svg>