<?xml version="1.0" encoding="UTF-8" standalone="no"?><!-- Generator: Gravit.io --><svg xmlns="http://www.w3.org/2000/svg" xmlns:xlink="http://www.w3.org/1999/xlink" style="isolation:isolate" viewBox="0 0 2750 700" width="2750pt" height="700pt"><defs><clipPath id="_clipPath_ILzdgAveQITd2C2y60Ty0FrswPRZq6vK"><rect width="2750" height="700"/></clipPath></defs><g clip-path="url(#_clipPath_ILzdgAveQITd2C2y60Ty0FrswPRZq6vK)"><rect width="2750" height="700" style="fill:rgb(98,78,78)" fill-opacity="0"/><path d=" M 1250 450 L 1150 450 L 1150 352.5 L 1100 352.5 L 1100 252.5 L 1100 252.5 L 1200 252.5 L 1200 350 L 1200 350 L 1200 350 L 1200 350 L 1200 350 L 1200 350 L 1200 350 L 1200 350 L 1200 350 L 1200 350 L 1200 350 L 1200 350 L 1200 350 L 1200 350 L 1200 350 L 1200 350 L 1200 350 L 1200 350 L 1200 350 L 1250 350 L 1250 50 L 1350 50 L 1350 650 L 1250 650 L 1250 450 Z  M 2600 175 L 2575 175 L 2575 250 L 2475 250 L 2475 175 L 2450 175 L 2450 175 L 2450 650 L 2350 650 L 2350 50 L 2450 50 L 2450 75 L 2500 75 L 2500 150 L 2500 150 L 2550 150 L 2550 150 L 2550 75 L 2600 75 L 2600 50 L 2700 50 L 2700 650 L 2600 650 L 2600 175 L 2600 175 L 2600 175 L 2600 175 L 2600 175 Z  M 1650 400 L 1400 400 L 1400 327.123 L 1400 327.123 L 1400 127.5 L 1400 127.5 L 1400 50 L 1400 50 L 1400 50 L 1400 50 L 1750 50 L 1750 150 L 1500 150 L 1500 150 L 1500 300 L 1750 300 L 1750 400 L 1750 400 L 1750 550 L 1750 550 L 1750 650 L 1400 650 L 1400 550 L 1400 550 L 1400 550 L 1400 550 L 1650 550 L 1650 400 L 1650 400 L 1650 400 L 1650 400 L 1650 400 L 1650 400 L 1650 400 L 1650 400 L 1650 400 L 1650 400 L 1650 400 L 1650 400 Z  M 50 50 L 400 50 L 400 400 L 50 400 L 50 50 L 50 50 L 50 50 L 50 50 L 50 50 L 50 50 L 50 50 L 50 50 L 50 50 L 50 50 L 50 50 L 50 50 L 50 50 L 50 50 L 50 50 L 50 50 L 50 50 L 50 50 L 50 50 L 50 50 L 50 50 L 50 50 L 50 50 L 50 50 Z  M 50 450 L 150 450 L 150 650 L 50 650 L 50 450 L 50 450 L 50 450 L 50 450 L 50 450 L 50 450 L 50 450 L 50 450 L 50 450 L 50 450 L 50 450 L 50 450 L 50 450 L 50 450 L 50 450 L 50 450 L 50 450 L 50 450 L 50 450 L 50 450 L 50 450 L 50 450 L 50 450 L 50 450 Z  M 450 450 L 550 450 L 550 650 L 450 650 L 450 450 L 450 450 L 450 450 L 450 450 L 450 450 L 450 450 L 450 450 L 450 450 L 450 450 L 450 450 L 450 450 L 450 450 L 450 450 L 450 450 L 450 450 L 450 450 L 450 450 L 450 450 L 450 450 L 450 450 L 450 450 L 450 450 L 450 450 Z  M 700 550 L 800 550 L 800 650 L 700 650 L 700 550 L 700 550 L 700 550 L 700 550 L 700 550 L 700 550 L 700 550 L 700 550 L 700 550 L 700 550 L 700 550 L 700 550 L 700 550 L 700 550 L 700 550 L 700 550 L 700 550 L 700 550 L 700 550 L 700 550 L 700 550 L 700 550 Z  M 600 450 L 700 450 L 700 550 L 600 550 L 600 450 L 600 450 L 600 450 L 600 450 L 600 450 L 600 450 L 600 450 L 600 450 L 600 450 L 600 450 L 600 450 L 600 450 L 600 450 L 600 450 L 600 450 L 600 450 L 600 450 L 600 450 L 600 450 L 600 450 L 600 450 Z  M 450 50 L 800 50 L 800 400 L 450 400 L 450 50 L 450 50 L 450 50 L 450 50 L 450 50 L 450 50 L 450 50 L 450 50 L 450 50 L 450 50 L 450 50 L 450 50 L 450 50 L 450 50 L 450 50 L 450 50 L 450 50 L 450 50 Z  M 2000 550 L 2000 550 L 2000 550 L 2000 550 L 2000 550 L 2000 550 L 2000 550 L 2000 550 L 2000 550 L 2000 550 L 2000 550 L 2000 550 L 2000 550 L 2250 550 L 2250 650 L 2000 650 L 2000 550 L 2000 550 L 2000 550 L 2000 550 L 2000 550 Z  M 850 50 L 950 50 L 950 650 L 850 650 L 850 50 L 850 50 L 850 50 L 850 50 L 850 50 L 850 50 L 850 50 L 850 50 L 850 50 L 850 50 L 850 50 Z  M 1800 50 L 1900 50 L 1900 650 L 1800 650 L 1800 50 L 1800 50 L 1800 50 L 1800 50 L 1800 50 L 1800 50 L 1800 50 L 1800 50 L 1800 50 L 1800 50 Z  M 1950 50 L 2050 50 L 2050 550 L 1950 550 L 1950 50 L 1950 50 L 1950 50 L 1950 50 Z  M 2200 50 L 2300 50 L 2300 550 L 2200 550 L 2200 50 L 2200 50 L 2200 50 Z  M 1000 50 L 1100 50 L 1100 650 L 1000 650 L 1000 50 L 1000 50 Z " fill-rule="evenodd" fill="rgb(255,255,255)"/></g></svg>